<svg width="148" height="171" viewBox="0 0 148 171" fill="none" xmlns="http://www.w3.org/2000/svg">
<path d="M59.5 108C46.7941 173.436 49.253 0 31.5 0C20.1592 0 18.3771 47.793 13.5 92.5C10.5 120 4.66972 152.17 0 169.5C0 169.5 7.58379 163.038 15.5 129.5C24.5 96 24 46 37.5 49C39.2608 49.3913 40.1255 51.3765 40.5 52.5C41 54 41.3208 74.9696 41 97C40.5054 130.967 40.5257 172.837 49.6018 170C56 168 54.5 145 70 91.5001C76.4146 70.0001 80.9965 52.9151 89 47.5001C100 40.0578 90.1018 171.266 107.5 164.5C125.5 157.5 137 55.5001 145.5 20.0001C154 -15.4999 128.5 87.5001 113 106.5C97.9704 124.923 100.7 31.8674 87.5 5.50012C74.3001 -20.8672 69.5 56.5001 59.5 108Z" fill="#0095FA"/>
</svg>
